<svg xmlns="http://www.w3.org/2000/svg" viewBox="0 0 1280 640" font-family="Inter, system-ui, -apple-system, sans-serif">
  <rect width="1280" height="640" fill="#16181D"/>
  <g transform="translate(96 176) scale(1.55)"><rect x="3.52" y="3.52" width="24.96" height="24.96" rx="5.49" fill="#E07B39"/>
  <rect x="35.52" y="3.52" width="24.96" height="24.96" rx="5.49" fill="#E07B39"/>
  <rect x="69.14" y="5.14" width="21.72" height="21.72" rx="3.87" fill="none" stroke="#9AA0A6" stroke-width="3.24"/>
  <rect x="3.52" y="35.52" width="24.96" height="24.96" rx="5.49" fill="#E07B39"/>
  <rect x="37.14" y="37.14" width="21.72" height="21.72" rx="3.87" fill="none" stroke="#9AA0A6" stroke-width="3.24"/>
  <rect x="67.52" y="35.52" width="24.96" height="24.96" rx="5.49" fill="#E07B39"/>
  <rect x="5.14" y="69.14" width="21.72" height="21.72" rx="3.87" fill="none" stroke="#9AA0A6" stroke-width="3.24"/>
  <rect x="35.52" y="67.52" width="24.96" height="24.96" rx="5.49" fill="#E07B39"/>
  <rect x="67.52" y="67.52" width="24.96" height="24.96" rx="5.49" fill="#E07B39"/></g>
  <text x="96" y="410" fill="#FBFAF8" font-size="76" font-weight="680" letter-spacing="-2.4">nocontext</text>
  <text x="96" y="462" fill="#9AA0A6" font-size="25" font-weight="420">Your agent will answer with nothing behind it. This tells you how often.</text>
  <g transform="translate(760 168)" font-family="ui-monospace, SFMono-Regular, Menlo, monospace">
    <text x="0" y="0"   fill="#9AA0A6"   font-size="21">ungrounded rate</text>
    <text x="330" y="0" fill="#E07B39" font-size="21" text-anchor="end" font-weight="600">43%</text>
    <line x1="0" y1="24" x2="330" y2="24" stroke="#2C3038"/>
    <text x="0" y="62"  fill="#9AA0A6" font-size="19">floor</text>
    <text x="330" y="62" fill="#9AA0A6" font-size="19" text-anchor="end">8%</text>
    <text x="0" y="98"  fill="#9AA0A6" font-size="19">observed</text>
    <text x="330" y="98" fill="#FBFAF8" font-size="19" text-anchor="end">57%</text>
    <text x="0" y="134" fill="#9AA0A6" font-size="19">ceiling</text>
    <text x="330" y="134" fill="#FBFAF8" font-size="19" text-anchor="end">92%</text>
  </g>
</svg>
